Coordinates
version=1
nRows=12
nColumns=24
inDegrees=yes

Units are S.I. units (second, meters, Newtons, ...)
Angles are in degrees.

endheader
time	pelvis_tilt	pelvis_list	pelvis_rotation	pelvis_tx	pelvis_ty	pelvis_tz	hip_flexion_r	hip_adduction_r	hip_rotation_r	knee_angle_r	ankle_angle_r	subtalar_angle_r	mtp_angle_r	hip_flexion_l	hip_adduction_l	hip_rotation_l	knee_angle_l	ankle_angle_l	subtalar_angle_l	mtp_angle_l	lumbar_extension	lumbar_bending	lumbar_rotation
      6.48000000	     -0.41474079	     -5.44976666	      0.25184382	      0.25317729	      0.70450033	      0.14781370	      2.70518995	     12.16374550	     16.74459050	     -8.61869057	     12.00532703	    -18.57618066	      0.00000000	     29.30563984	     -3.66210179	     -1.60594689	    -72.60736879	     -0.68963596	     -1.95719637	      0.00000000	    -17.07043082	      7.57289569	      2.44750990
      6.49000000	     -0.30616279	     -5.08108498	      0.00014133	      0.26488206	      0.70514741	      0.14746656	      1.13754281	     11.64673002	     17.46215919	     -7.93340323	     12.35517940	    -18.85119064	      0.00000000	     30.39386678	     -3.20602527	     -1.63276160	    -70.72472277	      1.13115900	     -4.95719148	      0.00000000	    -17.36878247	      7.09490917	      2.60529351
      6.50000000	     -0.25698640	     -4.68678044	     -0.22014969	      0.27641140	      0.70559813	      0.14706141	     -0.31952420	     11.08662355	     18.13163013	     -7.28767687	     12.71365910	    -19.14494557	      0.00000000	     31.36314369	     -2.71273785	     -1.56957710	    -68.35006165	      2.64361734	     -7.90510097	      0.00000000	    -17.65748386	      6.58986277	      2.71304177
      6.51000000	     -0.34092590	     -4.27742432	     -0.42571925	      0.28782867	      0.70578152	      0.14663373	     -1.57521349	     10.50661570	     18.64084658	     -6.70148612	     13.07660295	    -19.38352549	      0.00000000	     32.25951950	     -2.21158286	     -1.43253727	    -65.46661196	      3.85717383	    -10.68741677	      0.00000000	    -17.81676368	      6.05504057	      2.76287325
      6.52000000	     -0.55571121	     -3.88552465	     -0.61417788	      0.29917594	      0.70565073	      0.14622895	     -2.63748368	      9.95537423	     18.98932185	     -6.18231509	     13.48207675	    -19.55235884	      0.00000000	     33.06870823	     -1.75585785	     -1.22762534	    -62.09049213	      4.85781782	    -13.14759019	      0.00000000	    -17.84594671	      5.50983809	      2.76091637
      6.53000000	     -0.66075306	     -3.55173805	     -0.82282739	      0.31043364	      0.70558685	      0.14562860	     -3.80414758	      9.42680527	     19.30192399	     -5.67396050	     13.75849540	    -19.60810919	      0.00000000	     33.46984738	     -1.33336782	     -0.90200988	    -58.15455569	      5.52702799	    -15.44934978	      0.00000000	    -18.08469326	      5.08924353	      2.95719120
      6.54000000	     -0.87964045	     -3.28530704	     -1.02804045	      0.32175920	      0.70518957	      0.14512294	     -4.82209707	      8.98679617	     19.42134723	     -5.20907627	     14.08796913	    -19.52705108	      0.00000000	     33.72219646	     -1.02747328	     -0.51012836	    -53.72639434	      6.11748732	    -17.27179954	      0.00000000	    -18.16259364	      4.69210701	      3.09012646
      6.55000000	     -1.02573753	     -3.09485503	     -1.25936264	      0.33321262	      0.70472699	      0.14459361	     -5.90712995	      8.61830515	     19.37314941	     -4.78516432	     14.44067262	    -19.21948512	      0.00000000	     33.57134241	     -0.81307184	     -0.02486012	    -48.76239621	      6.59887782	    -18.75540583	      0.00000000	    -18.33136750	      4.37471217	      3.30362945
      6.56000000	     -1.15277881	     -2.99949867	     -1.53460641	      0.34490400	      0.70409640	      0.14404304	     -7.01682254	      8.33395703	     19.20285045	     -4.39321467	     14.83434512	    -18.66737208	      0.00000000	     33.06565840	     -0.71336137	      0.57336617	    -43.29256744	      7.05287033	    -19.85419305	      0.00000000	    -18.48497955	      4.17272826	      3.54919250
      6.57000000	     -1.10478087	     -3.01491772	     -1.82921220	      0.35689267	      0.70348692	      0.14352561	     -8.29112739	      8.16438252	     18.87846275	     -4.11809794	     15.29095178	    -17.80662704	      0.00000000	     32.01146987	     -0.71966928	      1.41898726	    -37.32307257	      7.39966457	    -20.67545877	      0.00000000	    -18.76542477	      4.04673461	      3.91156180
      6.58000000	     -1.01395757	     -3.15493613	     -2.16969403	      0.36924632	      0.70268028	      0.14296788	     -9.60583646	      8.10224419	     18.48572033	     -3.92537311	     15.76832822	    -16.74548669	      0.00000000	     30.57783350	     -0.85606833	      2.61352154	    -30.96217228	      7.61387449	    -21.32158448	      0.00000000	    -19.04044996	      4.07370533	      4.32091641
      6.59000000	     -0.86025305	     -3.43520946	     -2.56531600	      0.38204851	      0.70167641	      0.14243554	    -10.97517010	      8.16134687	     18.11414266	     -3.85901652	     16.27080992	    -15.50138765	      0.00000000	     28.76654663	     -1.17657725	      4.30920537	    -24.32360146	      7.50018718	    -22.09663427	      0.00000000	    -19.29200061	      4.24688304	      4.79811370
